#!OML:ASF H:\BabyWalks\Project 1\Capture day 1\Session 1\baby.ASF
:FULLY-SPECIFIED
:DEGREES
369
root -1.41203 16.9724 -1.08195 -43.5124 80.8502 -46.5382
lowerback 19.798 3.0303 -2.50285
upperback 5.90693 3.74565 -1.37222
thorax -4.71977 1.99231 -0.93203
lowerneck -0.591489 -0.554039 6.06612
upperneck -7.44034 -0.370511 2.16465
head -2.25434 -0.341483 -0.338363
rclavicle 7.95139e-015 -3.18055e-015
rhumerus -44.5873 10.9676 -85.2691
rradius 51.8189
rwrist -6.96717
rhand -16.2332 -17.5393
rfingers 7.12502
rthumb 9.97514 -47.2829
lclavicle 7.95139e-015 -3.18055e-015
lhumerus -55.8615 -13.5522 80.0874
lradius 40.502
lwrist -4.72483
lhand 9.80278 7.81843
lfingers 7.12502
lthumb 34.9393 34.3887
rfemur 1.56844 10.8176 25.8211
rtibia 42.4813
rfoot -13.7936 17.4242
rtoes -11.481
lfemur -36.7907 1.39326 -7.48054
ltibia 37.8531
lfoot -8.45978 -13.7362
ltoes -5.93217
370
root -1.29036 16.9581 -1.09223 -42.4799 80.9505 -45.5663
lowerback 19.9363 2.99011 -2.83896
upperback 5.97317 3.62222 -1.54905
thorax -4.72602 1.93625 -0.907492
lowerneck -0.51706 -0.601197 5.79628
upperneck -7.90895 -0.379495 2.52103
head -2.42022 -0.356622 -0.178858
rclavicle 3.89618e-014 -5.56597e-014
rhumerus -44.6042 10.906 -85.5385
rradius 51.3743
rwrist -6.56035
rhand -16.6891 -17.9339
rfingers 7.12502
rthumb 9.53536 -47.6981
lclavicle 3.89618e-014 -5.56597e-014
lhumerus -54.1751 -13.7888 79.5864
lradius 39.8702
lwrist -5.72898
lhand 9.66602 7.69391
lfingers 7.12502
lthumb 34.8095 34.2942
rfemur 0.413925 10.6881 25.2861
rtibia 44.8266
rfoot -12.3895 18.0083
rtoes -11.6049
lfemur -37.0069 1.85661 -7.94906
ltibia 38.9276
lfoot -8.98225 -14.2509
ltoes -4.58118
371
root -1.17236 16.9496 -1.10359 -41.6268 81.0193 -44.7734
lowerback 20.0891 2.93936 -3.07338
upperback 6.03294 3.50377 -1.71222
thorax -4.74138 1.88237 -0.927684
lowerneck -0.438163 -0.645172 5.54331
upperneck -8.34538 -0.388039 2.82327
head -2.57802 -0.370376 -0.0385114
rclavicle -1.11319e-014 2.70347e-014
rhumerus -44.6085 10.9016 -85.8225
rradius 50.883
rwrist -6.08216
rhand -17.0233 -18.3126
rfingers 7.12502
rthumb 9.2129 -48.0914
lclavicle -1.11319e-014 2.70347e-014
lhumerus -52.4205 -13.8868 78.9424
lradius 39.346
lwrist -6.77601
lhand 9.39585 7.63542
lfingers 7.12502
lthumb 34.5531 34.2947
rfemur -0.761792 10.5714 24.7927
rtibia 47.0917
rfoot -11.2114 18.2856
rtoes -12.0129
lfemur -37.1286 2.19408 -8.32556
ltibia 39.8268
lfoot -9.4948 -14.6474
ltoes -3.40953
372
root -1.05818 16.9471 -1.11583 -40.8225 81.0816 -44.0321
lowerback 20.2517 2.87808 -3.25268
upperback 6.08297 3.38096 -1.86649
thorax -4.76958 1.82616 -0.969072
lowerneck -0.352187 -0.677349 5.31997
upperneck -8.75114 -0.385159 3.06644
head -2.7284 -0.377413 0.0785732
rclavicle -7.95139e-015 1.74931e-014
rhumerus -44.5952 10.9588 -86.1157
rradius 50.3528
rwrist -5.51307
rhand -17.1831 -18.6269
rfingers 7.12502
rthumb 9.05867 -48.4124
lclavicle -7.95139e-015 1.74931e-014
lhumerus -50.6448 -13.8476 78.1989
lradius 38.9747
lwrist -7.7672
lhand 8.90352 7.65859
lfingers 7.12502
lthumb 34.0856 34.4233
rfemur -1.95489 10.4599 24.3128
rtibia 49.2589
rfoot -10.3898 18.2704
rtoes -12.6005
lfemur -37.154 2.41361 -8.65123
ltibia 40.5412
lfoot -9.9551 -14.8551
ltoes -2.3686
373
root -0.947421 16.9507 -1.12846 -39.939 81.1545 -43.2173
lowerback 20.415 2.80779 -3.42254
upperback 6.12329 3.24719 -2.01168
thorax -4.80827 1.76442 -1.00357
lowerneck -0.272456 -0.693023 5.13616
upperneck -9.11913 -0.367377 3.23729
head -2.8663 -0.375536 0.166017
rclavicle 2.94201e-014 3.18055e-015
rhumerus -44.5662 11.0833 -86.4076
rradius 49.806
rwrist -4.85017
rhand -17.1291 -18.84
rfingers 7.12502
rthumb 9.11078 -48.6232
lclavicle 2.94201e-014 3.18055e-015
lhumerus -48.89 -13.6814 77.4076
lradius 38.7942
lwrist -8.6372
lhand 8.13432 7.75071
lfingers 7.12502
lthumb 33.3547 34.6754
rfemur -3.16538 10.3465 23.8223
rtibia 51.3138
rfoot -9.96619 17.9953
rtoes -13.2574
lfemur -37.0838 2.519 -8.95755
ltibia 41.0692
lfoot -10.4318 -14.9195
ltoes -1.73326
374
root -0.84023 16.9602 -1.14089 -38.896 81.2573 -42.2572
lowerback 20.5735 2.72908 -3.62052
upperback 6.1502 3.09568 -2.14576
thorax -4.86051 1.6938 -1.00594
lowerneck -0.19998 -0.690948 4.98579
upperneck -9.4513 -0.332952 3.34432
head -2.99179 -0.363838 0.227133
rclavicle 3.81667e-014 -1.43125e-014
rhumerus -44.5278 11.2709 -86.685
rradius 49.2641
rwrist -4.09609
rhand -16.8436 -18.9196
rfingers 7.12502
rthumb 9.38621 -48.6906
lclavicle 3.81667e-014 -1.43125e-014
lhumerus -47.2017 -13.4303 76.6299
lradius 38.836
lwrist -9.31016
lhand 7.03794 7.8874
lfingers 7.12502
lthumb 32.3118 35.0303
rfemur -4.40309 10.2156 23.2998
rtibia 53.2388
rfoot -9.91164 17.5153
rtoes -13.9281
lfemur -36.9385 2.51358 -9.27275
ltibia 41.4169
lfoot -10.8884 -14.8976
ltoes -1.34708
375
root -0.736578 16.9755 -1.1523 -37.7364 81.3978 -41.1995
lowerback 20.7257 2.64129 -3.85052
upperback 6.16061 2.92448 -2.2665
thorax -4.92867 1.61337 -0.970964
lowerneck -0.142349 -0.673717 4.86605
upperneck -9.73749 -0.286165 3.39651
head -3.09967 -0.344243 0.264966
rclavicle 3.26007e-014 1.11319e-014
rhumerus -44.4955 11.4958 -86.9374
rradius 48.7493
rwrist -3.24186
rhand -16.3348 -18.8314
rfingers 7.12502
rthumb 9.87714 -48.5797
lclavicle 3.26007e-014 1.11319e-014
lhumerus -45.6114 -13.1459 75.9029
lradius 39.1157
lwrist -9.7723
lhand 5.62545 8.02219
lfingers 7.12502
lthumb 30.9664 35.4301
rfemur -5.66958 10.0503 22.7502
rtibia 55.0096
rfoot -10.148 16.9188
rtoes -14.5305
lfemur -36.7378 2.4102 -9.60164
ltibia 41.5961
lfoot -11.2755 -14.795
ltoes -1.04843
376
root -0.63615 16.9963 -1.16219 -36.5691 81.5683 -40.1501
lowerback 20.8724 2.54475 -4.10334
upperback 6.15815 2.73653 -2.36262
thorax -5.00905 1.52457 -0.892139
lowerneck -0.10072 -0.645106 4.7672
upperneck -9.98168 -0.231724 3.40228
head -3.19072 -0.319062 0.283785
rclavicle 1.19271e-014 2.54444e-014
rhumerus -44.4774 11.745 -87.149
rradius 48.2858
rwrist -2.31441
rhand -15.6088 -18.5794
rfingers 7.12502
rthumb 10.5776 -48.2932
lclavicle 1.19271e-014 2.54444e-014
lhumerus -44.1413 -12.8665 75.2583
lradius 39.6472
lwrist -10.0145
lhand 3.94223 8.13235
lfingers 7.12502
lthumb 29.3605 35.8335
rfemur -6.9518 9.84013 22.1971
rtibia 56.5963
rfoot -10.5826 16.3209
rtoes -15.0826
lfemur -36.4896 2.2208 -9.92721
ltibia 41.6224
lfoot -11.6069 -14.6035
ltoes -0.906582
377
root -0.538804 17.0224 -1.17 -35.5801 81.7562 -39.2906
lowerback 21.0253 2.43869 -4.34508
upperback 6.14016 2.53687 -2.42926
thorax -5.1092 1.42989 -0.785065
lowerneck -0.0698689 -0.611931 4.68724
upperneck -10.1823 -0.177706 3.37372
head -3.26515 -0.292671 0.287938
rclavicle 7.95139e-016 -4.6118e-014
rhumerus -44.4921 11.9867 -87.3157
rradius 47.8922
rwrist -1.34728
rhand -14.6819 -18.1781
rfingers 7.12502
rthumb 11.4715 -47.8443
lclavicle 7.95139e-016 -4.6118e-014
lhumerus -42.8104 -12.6384 74.7057
lradius 40.4361
lwrist -10.0324
lhand 2.05911 8.18506
lfingers 7.12502
lthumb 27.5611 36.1872
rfemur -8.23689 9.58323 21.6782
rtibia 57.9709
rfoot -11.124 15.8273
rtoes -15.5956
lfemur -36.2018 1.95791 -10.2187
ltibia 41.5157
lfoot -11.8914 -14.3668
ltoes -0.913062
378
root -0.444377 17.0532 -1.17548 -34.9041 81.9524 -38.7503
lowerback 21.1833 2.32371 -4.55606
upperback 6.1126 2.3313 -2.46096
thorax -5.22149 1.33217 -0.655894
lowerneck -0.0418955 -0.578314 4.62048
upperneck -10.3511 -0.12763 3.32171
head -3.32829 -0.267301 0.282054
rclavicle -2.06736e-014 1.43125e-014
rhumerus -44.5408 12.2115 -87.4337
rradius 47.5768
rwrist -0.383941
rhand -13.5952 -17.6645
rfingers 7.12502
rthumb 12.5194 -47.2695
lclavicle -2.06736e-014 1.43125e-014
lhumerus -41.6217 -12.4779 74.2415
lradius 41.487
lwrist -9.85039
lhand 0.0937636 8.17651
lfingers 7.12502
lthumb 25.6802 36.4643
rfemur -9.50835 9.27975 21.2191
rtibia 59.1103
rfoot -11.7135 15.5181
rtoes -16.1311
lfemur -35.8803 1.63898 -10.4569
ltibia 41.2963
lfoot -12.1163 -14.1145
ltoes -0.959055
379
root -0.352605 17.0881 -1.17852 -34.6626 82.14 -38.6456
lowerback 21.3546 2.20231 -4.70953
upperback 6.075 2.12813 -2.45873
thorax -5.35008 1.23543 -0.523101
lowerneck -0.0132181 -0.547569 4.5652
upperneck -10.4881 -0.0842027 3.26198
head -3.38075 -0.244796 0.271629
rclavicle -3.89618e-014 3.97569e-014
rhumerus -44.6283 12.4094 -87.5116
rradius 47.3435
rwrist 0.504288
rhand -12.3908 -17.0955
rfingers 7.12502
rthumb 13.6804 -46.6259
lclavicle -3.89618e-014 3.97569e-014
lhumerus -40.5723 -12.395 73.8472
lradius 42.7885
lwrist -9.48747
lhand -1.83465 8.12107
lfingers 7.12502
lthumb 23.832 36.6627
rfemur -10.7534 8.94117 20.8483
rtibia 60.0022
rfoot -12.2915 15.4467
rtoes -16.7173
lfemur -35.5267 1.28284 -10.6182
ltibia 40.9836
lfoot -12.2863 -13.8504
ltoes -1.02004
380
root -0.263116 17.1265 -1.17925 -34.8723 82.312 -38.9877
lowerback 21.5365 2.07507 -4.80214
upperback 6.03475 1.93013 -2.42501
thorax -5.48571 1.14101 -0.391394
lowerneck 0.0119318 -0.518387 4.5205
upperneck -10.6001 -0.0450802 3.19712
head -3.42402 -0.224104 0.257631
rclavicle 1.35174e-014 -7.95139e-015
rhumerus -44.7427 12.5874 -87.5553
rradius 47.1867
rwrist 1.26177
rhand -11.1085 -16.5362
rfingers 7.12502
rthumb 14.9159 -45.9791
lclavicle 1.35174e-014 -7.95139e-015
lhumerus -39.654 -12.3788 73.5051
lradius 44.3341
lwrist -8.95572
lhand -3.6242 8.02391
lfingers 7.12502
lthumb 22.1148 36.7792
rfemur -11.9592 8.57898 20.5719
rtibia 60.6446
rfoot -12.8297 15.5924
rtoes -17.3442
lfemur -35.1384 0.902029 -10.7012
ltibia 40.5925
lfoot -12.4214 -13.5799
ltoes -1.12726
